<svg width="10" height="16" viewBox="0 0 10 16" fill="none" xmlns="http://www.w3.org/2000/svg">
<path d="M4.21248 11.27C2.97211 11.1406 1.85373 10.8351 0.896215 10.0862C0.777406 9.99307 0.654743 9.90325 0.546323 9.79919C0.127224 9.39668 0.0849956 8.93569 0.416622 8.46062C0.700323 8.05409 1.17656 7.94533 1.67157 8.17876C1.76743 8.22401 1.85875 8.28048 1.94623 8.34114C3.73071 9.56727 6.18213 9.60112 7.97331 8.39627C8.15077 8.2602 8.34046 8.14927 8.56032 8.09263C8.9878 7.98287 9.38645 8.13989 9.61586 8.51391C9.87794 8.94105 9.87459 9.35797 9.55168 9.6896C9.05633 10.198 8.46061 10.5658 7.7987 10.8226C7.17282 11.0652 6.48728 11.1874 5.80878 11.2685C5.91116 11.3799 5.95942 11.4347 6.02344 11.499C6.94475 12.4247 7.87009 13.3465 8.78839 14.2751C9.10124 14.5914 9.1666 14.9837 8.99433 15.3517C8.80598 15.7539 8.38437 16.0185 7.97097 15.9902C7.70905 15.9721 7.50478 15.8417 7.3233 15.6589C6.62804 14.9593 5.91971 14.2725 5.23853 13.5597C5.04029 13.3524 4.94494 13.3916 4.76999 13.5716C4.07054 14.2916 3.3597 15.0006 2.64467 15.7056C2.3236 16.0222 1.94153 16.0791 1.56919 15.8983C1.17338 15.7065 0.921518 15.3024 0.940957 14.8964C0.954363 14.6218 1.08943 14.412 1.27795 14.2238C2.18971 13.3134 3.09896 12.4006 4.00854 11.4887C4.0687 11.428 4.12484 11.3636 4.21248 11.27Z" fill="white"/>
<path d="M4.96804 8.09863C2.75524 8.09109 0.940764 6.25667 0.953667 4.04036C0.966402 1.79958 2.78205 -0.00618427 5.01663 1.59188e-05C7.25574 0.00604853 9.05295 1.83778 9.04173 4.10186C9.03033 6.31365 7.20329 8.10634 4.96804 8.09863ZM6.97907 4.04572C6.97522 2.94527 6.09882 2.0692 5.00055 2.0682C3.89306 2.06702 3.00878 2.95901 3.01732 4.06952C3.02553 5.16578 3.90948 6.03565 5.01077 6.03162C6.1087 6.02777 6.98276 5.146 6.97907 4.04572Z" fill="white"/>
</svg>
