<svg width="49" height="221" viewBox="0 0 49 221" fill="none" xmlns="http://www.w3.org/2000/svg">
<path d="M2.1426 130.5L0.14605 130.383L2.1426 130.5ZM8.1426 158L6.4466 159.06H6.4466L8.1426 158ZM27.6426 193L29.6135 192.66L27.6426 193ZM31.1367 220.653C31.2253 219.501 31.3007 217.889 31.3314 215.938L27.3319 215.875C27.3021 217.765 27.2295 219.294 27.1485 220.347L31.1367 220.653ZM31.3174 211.265C31.2594 208.464 31.1079 205.293 30.8092 201.945L26.825 202.301C27.1147 205.547 27.2619 208.626 27.3182 211.347L31.3174 211.265ZM30.3065 197.296C30.1107 195.764 29.8813 194.214 29.6135 192.66L25.6717 193.34C25.9288 194.831 26.1497 196.324 26.3388 197.803L30.3065 197.296ZM29.6135 192.66C29.2206 190.381 28.5557 188.085 27.7123 185.823L23.9644 187.221C24.7408 189.303 25.3296 191.356 25.6717 193.34L29.6135 192.66ZM24.8759 179.459C22.7102 175.235 20.1312 171.213 17.7169 167.74L14.4327 170.024C16.79 173.414 19.2615 177.275 21.3163 181.284L24.8759 179.459ZM13.7243 162.227C11.8048 159.659 10.4319 157.889 9.83859 156.94L6.4466 159.06C7.15756 160.198 8.72181 162.216 10.5205 164.622L13.7243 162.227ZM9.8386 156.94C9.11903 155.789 8.31936 154.561 7.52057 152.972L3.94683 154.769C4.84802 156.561 5.76444 157.969 6.4466 159.06L9.8386 156.94ZM5.83647 148.838C5.0902 146.507 4.46866 143.603 4.17757 139.906L0.189908 140.22C0.503567 144.203 1.18028 147.413 2.02695 150.058L5.83647 148.838ZM4.00008 135.282C3.99782 133.829 4.04156 132.276 4.13915 130.617L0.14605 130.383C0.0439899 132.118 -0.00230742 133.75 8.83341e-05 135.288L4.00008 135.282ZM4.13915 130.617C4.22575 129.145 4.48258 127.578 4.89001 125.938L1.00796 124.974C0.553095 126.805 0.249776 128.619 0.14605 130.383L4.13915 130.617ZM6.36332 121.288C7.48301 118.331 8.95016 115.291 10.6099 112.301L7.11255 110.36C5.38447 113.473 3.82687 116.691 2.62249 119.871L6.36332 121.288ZM13.157 107.978C15.0026 105.01 16.9536 102.186 18.8303 99.6521L15.6157 97.2717C13.6842 99.88 11.6709 102.793 9.76043 105.865L13.157 107.978ZM21.9082 95.6599C23.0911 94.1876 24.1863 92.8958 25.1356 91.8307L22.1496 89.1693C21.1503 90.2904 20.011 91.6348 18.7899 93.1546L21.9082 95.6599ZM25.1356 91.8307C26.1746 90.665 27.4135 89.2741 28.7659 87.6961L25.7286 85.0932C24.4043 86.6385 23.1888 88.0033 22.1496 89.1693L25.1356 91.8307ZM32.2975 83.4284C34.4382 80.7395 36.6882 77.7024 38.8115 74.4028L35.4478 72.2382C33.4139 75.3988 31.2472 78.3254 29.1681 80.9371L32.2975 83.4284ZM41.6887 69.6003C43.4861 66.3543 45.0915 62.9044 46.3128 59.3179L42.5263 58.0286C41.396 61.3479 39.8964 64.5799 38.1893 67.6626L41.6887 69.6003ZM47.8369 53.8243C48.2343 51.9536 48.5101 50.0534 48.6382 48.133L44.647 47.867C44.5327 49.5817 44.2855 51.2927 43.9242 52.993L47.8369 53.8243ZM48.6382 48.133C48.763 46.2603 48.7662 44.3715 48.6677 42.4828L44.6731 42.6911C44.7642 44.4375 44.7603 46.1672 44.647 47.867L48.6382 48.133ZM48.0976 36.9045C47.5458 33.2137 46.672 29.5635 45.6158 26.0694L41.7869 27.2267C42.7979 30.5713 43.6234 34.0302 44.1415 37.4959L48.0976 36.9045ZM43.863 20.8247C42.5172 17.1406 41.0261 13.704 39.5732 10.6692L35.9654 12.3966C37.3719 15.3343 38.8107 18.6518 40.1059 22.1972L43.863 20.8247ZM37.0829 5.75664C36.0681 3.86372 35.1319 2.2431 34.351 0.960106L30.9342 3.03989C31.6767 4.25982 32.5767 5.81712 33.5576 7.64665L37.0829 5.75664Z" fill="#0D3351"/>
</svg>
