<svg width="11" height="12" viewBox="0 0 11 12" fill="none" xmlns="http://www.w3.org/2000/svg">
<path d="M0.272803 10.0907H2.18193V11.7273C2.18193 11.8069 2.2074 11.8721 2.25866 11.9231C2.30978 11.9744 2.37513 12 2.45473 12H3.87795C3.95182 12 4.01573 11.9744 4.06972 11.9231C4.1237 11.8721 4.15061 11.8069 4.15061 11.7273V10.0907H8.45458C8.53401 10.0907 8.59939 10.0654 8.65062 10.0141C8.7019 9.96291 8.72736 9.89768 8.72736 9.81805V8.7271C8.72736 8.64794 8.7019 8.58229 8.65062 8.53133C8.59953 8.48005 8.53401 8.45441 8.45458 8.45441H4.15047V7.44869H7.0482C8.1845 7.44869 9.11192 7.10244 9.83087 6.40897C10.5495 5.71622 10.909 4.82136 10.909 3.72434C10.909 2.62805 10.5495 1.73317 9.83087 1.03972C9.11206 0.346949 8.18448 0 7.0482 0H2.45459C2.37496 0 2.30975 0.0256171 2.25852 0.0765927C2.2074 0.127851 2.18179 0.193481 2.18179 0.272662V5.63359H0.272803C0.193199 5.63359 0.127968 5.66052 0.0767338 5.71448C0.0256407 5.76847 0 5.83238 0 5.90622V7.17598C0 7.2556 0.025476 7.32084 0.0767338 7.37207C0.127992 7.42335 0.193058 7.44866 0.272803 7.44866H2.18193V8.45439H0.272803C0.193199 8.45439 0.127968 8.48003 0.0767338 8.53131C0.0256407 8.58226 0 8.64778 0 8.72707V9.81803C0 9.89765 0.025476 9.96288 0.0767338 10.0141C0.127968 10.0654 0.193175 10.0907 0.272803 10.0907ZM4.15047 1.81552H6.87775C7.47995 1.81552 7.96566 1.9916 8.3351 2.34386C8.70435 2.69615 8.88906 3.15653 8.88906 3.72448C8.88906 4.29272 8.70435 4.75324 8.3351 5.10511C7.96566 5.45768 7.47993 5.63375 6.87775 5.63375H4.15047V1.81552Z" fill="#34C7FD"/>
</svg>
