<svg width="10" height="12" viewBox="0 0 10 12" fill="none" xmlns="http://www.w3.org/2000/svg">
<path d="M7.99999 3C7.99999 4.65685 6.65684 6 4.99999 6C3.34313 6 1.99999 4.65685 1.99999 3C1.99999 1.34315 3.34313 0 4.99999 0C6.65684 0 7.99999 1.34315 7.99999 3Z" fill="#34C7FD"/>
<path d="M0 11C0.284148 11.4736 1 12 1 12H9C9 12 9.71585 11.4736 10 11V8C9.71585 7.52642 9.49398 7.24699 9 7H7C6.50602 7.24699 6.49398 7.75301 6 8C5.30141 8.3493 4.69859 8.3493 4 8C3.50602 7.75301 3.49398 7.24699 3 7H1C0.506021 7.24699 0.284148 7.52642 0 8V11Z" fill="#34C7FD"/>
</svg>
