<svg width="18" height="12" viewBox="0 0 18 12" fill="none" xmlns="http://www.w3.org/2000/svg">
<path d="M9.8715 11.2455C10.3282 11.2455 10.515 10.941 10.5097 10.5592C10.4865 9.1215 11.0452 8.3475 12.054 9.35625C13.17 10.4722 13.401 11.2455 14.7562 11.2455H17.1562C17.7623 11.2455 18.0007 11.0505 18.0007 10.7445C18.0007 10.0972 16.935 8.955 16.032 8.1165C14.7675 6.94275 14.7083 6.915 15.7972 5.502C17.148 3.74775 18.915 1.5 17.352 1.5H14.3663C13.7873 1.5 13.7452 1.82625 13.539 2.31225C12.7928 4.0725 11.3745 6.3525 10.836 6.00375C10.2727 5.64 10.5307 4.19925 10.5735 2.058C10.5847 1.4925 10.5817 1.10475 9.71775 0.90375C9.246 0.795 8.787 0.75 8.361 0.75C6.65625 0.75 5.48025 1.46475 6.1485 1.58925C7.32675 1.809 7.2135 4.35825 6.939 5.45925C6.4605 7.37625 4.662 3.94125 3.91275 2.2305C3.732 1.8195 3.6765 1.5 3.0315 1.5H0.59025C0.22125 1.5 0 1.62 0 1.887C0 2.3385 2.22 6.927 4.3395 9.2145C6.4065 11.4457 8.4495 11.2455 9.8715 11.2455Z" fill="white"/>
</svg>
