<svg width="16" height="18" viewBox="0 0 16 18" fill="none" xmlns="http://www.w3.org/2000/svg">
<path d="M2.489 0H3.569L4.31 2.7765L4.997 0H6.0875L4.83875 4.12875V6.9465H3.7655V4.12875L2.489 0V0ZM7.4345 1.77975C6.59525 1.77975 6.03875 2.33475 6.03875 3.156V5.66775C6.03875 6.57075 6.5105 7.041 7.4345 7.041C8.201 7.041 8.804 6.52875 8.804 5.66775V3.156C8.804 2.35425 8.20625 1.77975 7.4345 1.77975ZM7.83275 5.625C7.83275 5.904 7.69025 6.1095 7.43375 6.1095C7.1705 6.1095 7.01825 5.89425 7.01825 5.625V3.24075C7.01825 2.96025 7.14725 2.7525 7.415 2.7525C7.7075 2.7525 7.83275 2.95425 7.83275 3.24075V5.625ZM11.3795 1.8225V5.712C11.2633 5.8575 11.0045 6.096 10.8193 6.096C10.616 6.096 10.5658 5.9565 10.5658 5.751V1.8225H9.61325V6.105C9.61325 6.61125 9.76775 7.02 10.2785 7.02C10.5665 7.02 10.967 6.87 11.3795 6.38025V6.94575H12.332V1.8225H11.3795ZM13.0317 12.216C12.6957 12.216 12.626 12.4523 12.626 12.7882V13.2825H13.4277V12.7875C13.4285 12.4575 13.3587 12.216 13.0317 12.216ZM9.5045 12.246C9.4415 12.2782 9.37925 12.3277 9.317 12.3945V15.4357C9.39125 15.5152 9.4625 15.5722 9.53225 15.6075C9.68 15.6825 9.896 15.6877 9.9965 15.5573C10.049 15.4882 10.0753 15.3765 10.0753 15.2205V12.7013C10.0753 12.5362 10.043 12.4117 9.9785 12.3263C9.86825 12.1815 9.6635 12.1657 9.5045 12.246ZM13.1248 8.34975C11.1718 8.217 4.82525 8.217 2.87525 8.34975C0.76475 8.49375 0.51575 9.76875 0.5 13.125C0.51575 16.4753 0.7625 17.7563 2.87525 17.9002C4.82525 18.033 11.1718 18.033 13.1248 17.9002C15.2353 17.7563 15.4843 16.4805 15.5 13.125C15.4843 9.77475 15.2375 8.49375 13.1248 8.34975ZM3.88175 16.3643H2.8595V10.7093H1.802V9.74925H4.9385V10.7093H3.881V16.3643H3.88175ZM7.51625 16.3643H6.60875V15.8258C6.4415 16.0245 6.2675 16.176 6.08675 16.2795C5.59775 16.56 4.9265 16.5532 4.9265 15.5632V11.4847H5.83325V15.2257C5.83325 15.4223 5.8805 15.5543 6.07475 15.5543C6.25175 15.5543 6.49775 15.327 6.608 15.189V11.4847H7.5155V16.3643H7.51625ZM11.009 15.3533C11.009 15.957 10.7832 16.4265 10.1795 16.4265C9.84725 16.4265 9.5705 16.305 9.31775 15.9893V16.3643H8.402V9.74925H9.31775V11.8792C9.5225 11.6295 9.80075 11.4233 10.1248 11.4233C10.7893 11.4233 11.0098 11.985 11.0098 12.6465V15.3533H11.009ZM14.3622 14.0392H12.6268V14.9603C12.6268 15.3263 12.6583 15.6427 13.0228 15.6427C13.406 15.6427 13.4285 15.3848 13.4285 14.9603V14.6213H14.3622V14.988C14.3622 15.9277 13.9587 16.4977 13.0025 16.4977C12.1363 16.4977 11.693 15.8662 11.693 14.988V12.7972C11.693 11.9505 12.2525 11.3617 13.0707 11.3617C13.9415 11.3617 14.3615 11.9152 14.3615 12.7972V14.0392H14.3622Z" fill="white"/>
</svg>
